{
	"asset":{
		"generator":"Khronos glTF Blender I/O v3.5.30",
		"version":"2.0"
	},
	"scene":0,
	"scenes":[
		{
			"name":"Scene",
			"nodes":[
				5,
				6
			]
		}
	],
	"nodes":[
		{
			"mesh":0,
			"name":"Lockers.21168_Monitor Screen.001_0",
			"translation":[
				-2.3820375645300373e-06,
				0,
				0
			]
		},
		{
			"mesh":1,
			"name":"Lockers.21168_Monitor.003_0",
			"translation":[
				-1.6201194524765015,
				-0.9700013399124146,
				1.220000147819519
			]
		},
		{
			"children":[
				0,
				1
			],
			"name":"Lockers.21168",
			"rotation":[
				-1,
				0,
				0,
				7.549790126404332e-08
			],
			"scale":[
				-9.464370727539062,
				-9.464369773864746,
				-9.464369773864746
			],
			"translation":[
				25565.56640625,
				424.5173034667969,
				-257.8788757324219
			]
		},
		{
			"children":[
				2
			],
			"name":"RootNode"
		},
		{
			"children":[
				3
			],
			"name":"5a6dbae59ab84adc85502e644c55dc8e.fbx",
			"rotation":[
				0.70710688829422,
				0,
				0,
				0.7071066498756409
			],
			"scale":[
				0.009999999776482582,
				0.010000000707805157,
				0.010000000707805157
			]
		},
		{
			"children":[
				4
			],
			"name":"Sketchfab_model",
			"rotation":[
				-0.70710688829422,
				0,
				0,
				0.7071066498756409
			]
		},
		{
			"mesh":2,
			"name":"Cube"
		}
	],
	"materials":[
		{
			"doubleSided":true,
			"name":"Monitor_Screen.001",
			"pbrMetallicRoughness":{
				"baseColorTexture":{
					"index":0
				},
				"metallicRoughnessTexture":{
					"index":1
				}
			}
		},
		{
			"doubleSided":true,
			"name":"Monitor.003",
			"pbrMetallicRoughness":{
				"baseColorTexture":{
					"index":2
				},
				"metallicFactor":0
			}
		},
		{
			"doubleSided":true,
			"name":"Material",
			"pbrMetallicRoughness":{
				"baseColorFactor":[
					0.800000011920929,
					0.800000011920929,
					0.800000011920929,
					1
				],
				"metallicFactor":0,
				"roughnessFactor":0.5
			}
		}
	],
	"meshes":[
		{
			"name":"Lockers.21168_Monitor Screen.001_0",
			"primitives":[
				{
					"attributes":{
						"POSITION":0,
						"TEXCOORD_0":1,
						"NORMAL":2
					},
					"indices":3,
					"material":0
				}
			]
		},
		{
			"name":"Lockers.21168_Monitor.003_0",
			"primitives":[
				{
					"attributes":{
						"POSITION":4,
						"TEXCOORD_0":5,
						"NORMAL":6
					},
					"indices":7,
					"material":1
				}
			]
		},
		{
			"name":"Cube",
			"primitives":[
				{
					"attributes":{
						"POSITION":8,
						"TEXCOORD_0":9,
						"NORMAL":10
					},
					"indices":11,
					"material":2
				}
			]
		}
	],
	"textures":[
		{
			"sampler":0,
			"source":0
		},
		{
			"sampler":0,
			"source":1
		},
		{
			"sampler":0,
			"source":0
		}
	],
	"images":[
		{
			"bufferView":4,
			"mimeType":"image/png",
			"name":"Image_0"
		},
		{
			"bufferView":5,
			"mimeType":"image/png",
			"name":"Image_1"
		}
	],
	"accessors":[
		{
			"bufferView":0,
			"componentType":5126,
			"count":40,
			"max":[
				102.54443359375,
				44.621036529541016,
				11.2467041015625
			],
			"min":[
				-95.14459228515625,
				-14.382854461669922,
				4.5377197265625
			],
			"type":"VEC3"
		},
		{
			"bufferView":1,
			"componentType":5126,
			"count":40,
			"type":"VEC2"
		},
		{
			"bufferView":2,
			"componentType":5126,
			"count":40,
			"type":"VEC3"
		},
		{
			"bufferView":3,
			"componentType":5123,
			"count":60,
			"type":"SCALAR"
		},
		{
			"bufferView":6,
			"componentType":5126,
			"count":1504,
			"max":[
				103.66180419921875,
				45.53885269165039,
				12.2142333984375
			],
			"min":[
				-96.26654052734375,
				-39.080650329589844,
				-16.494140625
			],
			"type":"VEC3"
		},
		{
			"bufferView":7,
			"componentType":5126,
			"count":1504,
			"type":"VEC2"
		},
		{
			"bufferView":8,
			"componentType":5126,
			"count":1504,
			"type":"VEC3"
		},
		{
			"bufferView":9,
			"componentType":5123,
			"count":2604,
			"type":"SCALAR"
		},
		{
			"bufferView":10,
			"componentType":5126,
			"count":24,
			"max":[
				1,
				1,
				1
			],
			"min":[
				-1,
				-1,
				-1
			],
			"type":"VEC3"
		},
		{
			"bufferView":11,
			"componentType":5126,
			"count":24,
			"type":"VEC2"
		},
		{
			"bufferView":12,
			"componentType":5126,
			"count":24,
			"type":"VEC3"
		},
		{
			"bufferView":13,
			"componentType":5123,
			"count":36,
			"type":"SCALAR"
		}
	],
	"bufferViews":[
		{
			"buffer":0,
			"byteLength":480,
			"byteOffset":0,
			"target":34962
		},
		{
			"buffer":0,
			"byteLength":320,
			"byteOffset":480,
			"target":34962
		},
		{
			"buffer":0,
			"byteLength":480,
			"byteOffset":800,
			"target":34962
		},
		{
			"buffer":0,
			"byteLength":120,
			"byteOffset":1280,
			"target":34963
		},
		{
			"buffer":0,
			"byteLength":207,
			"byteOffset":1400
		},
		{
			"buffer":0,
			"byteLength":222,
			"byteOffset":1608
		},
		{
			"buffer":0,
			"byteLength":18048,
			"byteOffset":1832,
			"target":34962
		},
		{
			"buffer":0,
			"byteLength":12032,
			"byteOffset":19880,
			"target":34962
		},
		{
			"buffer":0,
			"byteLength":18048,
			"byteOffset":31912,
			"target":34962
		},
		{
			"buffer":0,
			"byteLength":5208,
			"byteOffset":49960,
			"target":34963
		},
		{
			"buffer":0,
			"byteLength":288,
			"byteOffset":55168,
			"target":34962
		},
		{
			"buffer":0,
			"byteLength":192,
			"byteOffset":55456,
			"target":34962
		},
		{
			"buffer":0,
			"byteLength":288,
			"byteOffset":55648,
			"target":34962
		},
		{
			"buffer":0,
			"byteLength":72,
			"byteOffset":55936,
			"target":34963
		}
	],
	"samplers":[
		{
			"magFilter":9729,
			"minFilter":9987
		}
	],
	"buffers":[
		{
			"byteLength":56008,
			"uri":"data:application/octet-stream;base64,"
		}
	]
}
