{
  "accessors": [
    {
      "bufferView": 2,
      "componentType": 5126,
      "count": 65532,
      "max": [
        36.941104888916016,
        -1.0128693580627441,
        87.29229736328125
      ],
      "min": [
        -36.9181022644043,
        -73.10264587402344,
        15.625405311584473
      ],
      "type": "VEC3"
    },
    {
      "bufferView": 2,
      "byteOffset": 786384,
      "componentType": 5126,
      "count": 65532,
      "max": [
        0.9999684691429138,
        0.9997333884239197,
        0.9999847412109375
      ],
      "min": [
        -0.9999635815620422,
        -0.9999380111694336,
        -0.9999925494194031
      ],
      "type": "VEC3"
    },
    {
      "bufferView": 3,
      "componentType": 5126,
      "count": 65532,
      "max": [
        0.9215686321258545,
        0.8784313797950745,
        0.8705882430076599,
        1.0
      ],
      "min": [
        0.019607843831181526,
        0.019607843831181526,
        0.019607843831181526,
        1.0
      ],
      "type": "VEC4"
    },
    {
      "bufferView": 1,
      "componentType": 5126,
      "count": 65532,
      "max": [
        0.75,
        1.0
      ],
      "min": [
        0.0,
        0.0
      ],
      "type": "VEC2"
    },
    {
      "bufferView": 0,
      "componentType": 5125,
      "count": 380451,
      "type": "SCALAR"
    },
    {
      "bufferView": 2,
      "byteOffset": 1572768,
      "componentType": 5126,
      "count": 36593,
      "max": [
        32.784332275390625,
        -1.0110108852386475,
        87.32556915283203
      ],
      "min": [
        -36.94076156616211,
        -67.90653991699219,
        15.875234603881836
      ],
      "type": "VEC3"
    },
    {
      "bufferView": 2,
      "byteOffset": 2011884,
      "componentType": 5126,
      "count": 36593,
      "max": [
        0.9964938163757324,
        0.9999827146530151,
        0.9990042448043823
      ],
      "min": [
        -0.9999318718910217,
        -0.9999620318412781,
        -0.999962329864502
      ],
      "type": "VEC3"
    },
    {
      "bufferView": 3,
      "byteOffset": 1048512,
      "componentType": 5126,
      "count": 36593,
      "max": [
        0.9215686321258545,
        0.8352941274642944,
        0.8235294222831726,
        1.0
      ],
      "min": [
        0.019607843831181526,
        0.019607843831181526,
        0.019607843831181526,
        1.0
      ],
      "type": "VEC4"
    },
    {
      "bufferView": 1,
      "byteOffset": 524256,
      "componentType": 5126,
      "count": 36593,
      "max": [
        0.724609375,
        0.88671875
      ],
      "min": [
        0.03125,
        0.076171875
      ],
      "type": "VEC2"
    },
    {
      "bufferView": 0,
      "byteOffset": 1521804,
      "componentType": 5125,
      "count": 209373,
      "type": "SCALAR"
    },
    {
      "bufferView": 2,
      "byteOffset": 2451000,
      "componentType": 5126,
      "count": 65532,
      "max": [
        -6.092645645141602,
        -26.49104881286621,
        13.277109146118164
      ],
      "min": [
        -25.632097244262695,
        -49.85878372192383,
        -29.955440521240234
      ],
      "type": "VEC3"
    },
    {
      "bufferView": 2,
      "byteOffset": 3237384,
      "componentType": 5126,
      "count": 65532,
      "max": [
        1.0,
        1.0,
        0.9998544454574585
      ],
      "min": [
        -1.0,
        -1.0,
        -0.9993142485618591
      ],
      "type": "VEC3"
    },
    {
      "bufferView": 3,
      "byteOffset": 1634000,
      "componentType": 5126,
      "count": 65532,
      "max": [
        0.6431372761726379,
        0.4588235318660736,
        0.29019609093666077,
        1.0
      ],
      "min": [
        0.27843138575553894,
        0.27843138575553894,
        0.27450981736183167,
        1.0
      ],
      "type": "VEC4"
    },
    {
      "bufferView": 0,
      "byteOffset": 2359296,
      "componentType": 5125,
      "count": 391239,
      "type": "SCALAR"
    },
    {
      "bufferView": 2,
      "byteOffset": 4023768,
      "componentType": 5126,
      "count": 1592,
      "max": [
        -7.5164475440979,
        -26.49104881286621,
        13.087206840515137
      ],
      "min": [
        -21.991907119750977,
        -47.921783447265625,
        -29.973899841308594
      ],
      "type": "VEC3"
    },
    {
      "bufferView": 2,
      "byteOffset": 4042872,
      "componentType": 5126,
      "count": 1592,
      "max": [
        0.46792203187942505,
        0.9999999403953552,
        0.9986419081687927
      ],
      "min": [
        -0.4589923918247223,
        -0.30634987354278564,
        -0.9999890923500061
      ],
      "type": "VEC3"
    },
    {
      "bufferView": 3,
      "byteOffset": 2682512,
      "componentType": 5126,
      "count": 1592,
      "max": [
        0.29411765933036804,
        0.2862745225429535,
        0.27450981736183167,
        1.0
      ],
      "min": [
        0.27843138575553894,
        0.27843138575553894,
        0.27450981736183167,
        1.0
      ],
      "type": "VEC4"
    },
    {
      "bufferView": 0,
      "byteOffset": 3924252,
      "componentType": 5125,
      "count": 8121,
      "type": "SCALAR"
    },
    {
      "bufferView": 2,
      "byteOffset": 4061976,
      "componentType": 5126,
      "count": 65532,
      "max": [
        26.353870391845703,
        -27.808496475219727,
        10.670039176940918
      ],
      "min": [
        6.630882263183594,
        -50.40017318725586,
        -30.220338821411133
      ],
      "type": "VEC3"
    },
    {
      "bufferView": 2,
      "byteOffset": 4848360,
      "componentType": 5126,
      "count": 65532,
      "max": [
        0.9999976754188538,
        1.0,
        0.9998263120651245
      ],
      "min": [
        -0.999998152256012,
        -0.9999978542327881,
        -0.9998568892478943
      ],
      "type": "VEC3"
    },
    {
      "bufferView": 3,
      "byteOffset": 2707984,
      "componentType": 5126,
      "count": 65532,
      "max": [
        0.6470588445663452,
        0.4588235318660736,
        0.29019609093666077,
        1.0
      ],
      "min": [
        0.27843138575553894,
        0.27843138575553894,
        0.27450981736183167,
        1.0
      ],
      "type": "VEC4"
    },
    {
      "bufferView": 0,
      "byteOffset": 3956736,
      "componentType": 5125,
      "count": 391809,
      "type": "SCALAR"
    },
    {
      "bufferView": 2,
      "byteOffset": 5634744,
      "componentType": 5126,
      "count": 1497,
      "max": [
        23.098590850830078,
        -27.808496475219727,
        9.969205856323242
      ],
      "min": [
        8.656685829162598,
        -49.278350830078125,
        -30.220338821411133
      ],
      "type": "VEC3"
    },
    {
      "bufferView": 2,
      "byteOffset": 5652708,
      "componentType": 5126,
      "count": 1497,
      "max": [
        0.35465189814567566,
        1.0,
        0.9986642599105835
      ],
      "min": [
        -0.35142502188682556,
        -0.37916606664657593,
        -0.9998568892478943
      ],
      "type": "VEC3"
    },
    {
      "bufferView": 3,
      "byteOffset": 3756496,
      "componentType": 5126,
      "count": 1497,
      "max": [
        0.4588235318660736,
        0.364705890417099,
        0.27843138575553894,
        1.0
      ],
      "min": [
        0.27843138575553894,
        0.27843138575553894,
        0.27450981736183167,
        1.0
      ],
      "type": "VEC4"
    },
    {
      "bufferView": 0,
      "byteOffset": 5523972,
      "componentType": 5125,
      "count": 7551,
      "type": "SCALAR"
    },
    {
      "bufferView": 2,
      "byteOffset": 5670672,
      "componentType": 5126,
      "count": 65532,
      "max": [
        26.90134048461914,
        7.484256744384766,
        30.10207176208496
      ],
      "min": [
        -26.901601791381836,
        -56.2044677734375,
        -20.734983444213867
      ],
      "type": "VEC3"
    },
    {
      "bufferView": 2,
      "byteOffset": 6457056,
      "componentType": 5126,
      "count": 65532,
      "max": [
        0.9999929666519165,
        0.9994216561317444,
        0.9999999403953552
      ],
      "min": [
        -0.999829888343811,
        -0.9999651312828064,
        -0.999987781047821
      ],
      "type": "VEC3"
    },
    {
      "bufferView": 3,
      "byteOffset": 3780448,
      "componentType": 5126,
      "count": 65532,
      "max": [
        0.800000011920929,
        0.7882353067398071,
        0.772549033164978,
        1.0
      ],
      "min": [
        0.27843138575553894,
        0.27843138575553894,
        0.27450981736183167,
        1.0
      ],
      "type": "VEC4"
    },
    {
      "bufferView": 1,
      "byteOffset": 817000,
      "componentType": 5126,
      "count": 65532,
      "max": [
        0.5,
        1.0
      ],
      "min": [
        0.0,
        0.0
      ],
      "type": "VEC2"
    },
    {
      "bufferView": 0,
      "byteOffset": 5554176,
      "componentType": 5125,
      "count": 385389,
      "type": "SCALAR"
    },
    {
      "bufferView": 2,
      "byteOffset": 7243440,
      "componentType": 5126,
      "count": 35118,
      "max": [
        20.576093673706055,
        13.012493133544922,
        30.010480880737305
      ],
      "min": [
        -25.425092697143555,
        -48.70930862426758,
        -20.63991928100586
      ],
      "type": "VEC3"
    },
    {
      "bufferView": 2,
      "byteOffset": 7664856,
      "componentType": 5126,
      "count": 35118,
      "max": [
        0.9800204038619995,
        0.9999858736991882,
        0.9991039633750916
      ],
      "min": [
        -0.9985489249229431,
        -0.9826677441596985,
        -0.9971736073493958
      ],
      "type": "VEC3"
    },
    {
      "bufferView": 3,
      "byteOffset": 4828960,
      "componentType": 5126,
      "count": 35118,
      "max": [
        0.800000011920929,
        0.7882353067398071,
        0.772549033164978,
        1.0
      ],
      "min": [
        0.27843138575553894,
        0.27843138575553894,
        0.27450981736183167,
        1.0
      ],
      "type": "VEC4"
    },
    {
      "bufferView": 1,
      "byteOffset": 1341256,
      "componentType": 5126,
      "count": 35118,
      "max": [
        0.75,
        1.0
      ],
      "min": [
        0.08203125,
        0.220703125
      ],
      "type": "VEC2"
    },
    {
      "bufferView": 0,
      "byteOffset": 7095732,
      "componentType": 5125,
      "count": 204435,
      "type": "SCALAR"
    },
    {
      "bufferView": 2,
      "byteOffset": 8086272,
      "componentType": 5126,
      "count": 65532,
      "max": [
        28.891164779663086,
        31.498613357543945,
        20.864158630371094
      ],
      "min": [
        -28.896024703979492,
        -17.58746337890625,
        -30.02454948425293
      ],
      "type": "VEC3"
    },
    {
      "bufferView": 2,
      "byteOffset": 8872656,
      "componentType": 5126,
      "count": 65532,
      "max": [
        0.999999463558197,
        0.9994791150093079,
        0.9999316334724426
      ],
      "min": [
        -0.9999803304672241,
        -0.9999951720237732,
        -0.9999982714653015
      ],
      "type": "VEC3"
    },
    {
      "bufferView": 3,
      "byteOffset": 5390848,
      "componentType": 5126,
      "count": 65532,
      "max": [
        0.800000011920929,
        0.7882353067398071,
        0.772549033164978,
        1.0
      ],
      "min": [
        0.27843138575553894,
        0.27843138575553894,
        0.27450981736183167,
        1.0
      ],
      "type": "VEC4"
    },
    {
      "bufferView": 1,
      "byteOffset": 1622200,
      "componentType": 5126,
      "count": 65532,
      "max": [
        0.5,
        1.0
      ],
      "min": [
        0.0,
        0.0
      ],
      "type": "VEC2"
    },
    {
      "bufferView": 0,
      "byteOffset": 7913472,
      "componentType": 5125,
      "count": 384234,
      "type": "SCALAR"
    },
    {
      "bufferView": 2,
      "byteOffset": 9659040,
      "componentType": 5126,
      "count": 37451,
      "max": [
        27.873245239257813,
        85.81607055664063,
        20.864158630371094
      ],
      "min": [
        -28.675914764404297,
        -17.07219123840332,
        -30.046180725097656
      ],
      "type": "VEC3"
    },
    {
      "bufferView": 2,
      "byteOffset": 10108452,
      "componentType": 5126,
      "count": 37451,
      "max": [
        0.9999979734420776,
        0.9997575879096985,
        0.9999218583106995
      ],
      "min": [
        -0.9999889731407166,
        -0.9994726777076721,
        -0.9999987483024597
      ],
      "type": "VEC3"
    },
    {
      "bufferView": 3,
      "byteOffset": 6439360,
      "componentType": 5126,
      "count": 37451,
      "max": [
        0.800000011920929,
        0.7882353067398071,
        0.772549033164978,
        1.0
      ],
      "min": [
        0.27843138575553894,
        0.27843138575553894,
        0.27450981736183167,
        1.0
      ],
      "type": "VEC4"
    },
    {
      "bufferView": 1,
      "byteOffset": 2146456,
      "componentType": 5126,
      "count": 37451,
      "max": [
        0.75,
        1.0
      ],
      "min": [
        0.00390625,
        0.01171875
      ],
      "type": "VEC2"
    },
    {
      "bufferView": 0,
      "byteOffset": 9450408,
      "componentType": 5125,
      "count": 205590,
      "type": "SCALAR"
    }
  ],
  "asset": {
    "extras": {
      "author": "brehorg (https://sketchfab.com/brehorg)",
      "license": "CC-BY-4.0 (http://creativecommons.org/licenses/by/4.0/)",
      "source": "https://sketchfab.com/3d-models/cute-wolf-puppy-dog-colored-5bc29c25a0994466b87edeb6d0363cbc",
      "title": "cute wolf puppy dog - colored"
    },
    "generator": "Sketchfab-15.1.0",
    "version": "2.0"
  },
  "bufferViews": [
    {
      "buffer": 0,
      "byteLength": 10272768,
      "name": "floatBufferViews",
      "target": 34963
    },
    {
      "buffer": 0,
      "byteLength": 2446064,
      "byteOffset": 10272768,
      "byteStride": 8,
      "name": "floatBufferViews",
      "target": 34962
    },
    {
      "buffer": 0,
      "byteLength": 10557864,
      "byteOffset": 12718832,
      "byteStride": 12,
      "name": "floatBufferViews",
      "target": 34962
    },
    {
      "buffer": 0,
      "byteLength": 7038576,
      "byteOffset": 23276696,
      "byteStride": 16,
      "name": "floatBufferViews",
      "target": 34962
    }
  ],
  "buffers": [
    {
      "byteLength": 30315272,
      "uri": "scene.bin"
    }
  ],
  "materials": [
    {
      "doubleSided": true,
      "name": "material_0",
      "pbrMetallicRoughness": {
        "metallicFactor": 0.0,
        "roughnessFactor": 0.6
      }
    }
  ],
  "meshes": [
    {
      "name": "Object_0",
      "primitives": [
        {
          "attributes": {
            "COLOR_0": 2,
            "NORMAL": 1,
            "POSITION": 0,
            "TEXCOORD_0": 3
          },
          "indices": 4,
          "material": 0,
          "mode": 4
        }
      ]
    },
    {
      "name": "Object_1",
      "primitives": [
        {
          "attributes": {
            "COLOR_0": 7,
            "NORMAL": 6,
            "POSITION": 5,
            "TEXCOORD_0": 8
          },
          "indices": 9,
          "material": 0,
          "mode": 4
        }
      ]
    },
    {
      "name": "Object_2",
      "primitives": [
        {
          "attributes": {
            "COLOR_0": 12,
            "NORMAL": 11,
            "POSITION": 10
          },
          "indices": 13,
          "material": 0,
          "mode": 4
        }
      ]
    },
    {
      "name": "Object_3",
      "primitives": [
        {
          "attributes": {
            "COLOR_0": 16,
            "NORMAL": 15,
            "POSITION": 14
          },
          "indices": 17,
          "material": 0,
          "mode": 4
        }
      ]
    },
    {
      "name": "Object_4",
      "primitives": [
        {
          "attributes": {
            "COLOR_0": 20,
            "NORMAL": 19,
            "POSITION": 18
          },
          "indices": 21,
          "material": 0,
          "mode": 4
        }
      ]
    },
    {
      "name": "Object_5",
      "primitives": [
        {
          "attributes": {
            "COLOR_0": 24,
            "NORMAL": 23,
            "POSITION": 22
          },
          "indices": 25,
          "material": 0,
          "mode": 4
        }
      ]
    },
    {
      "name": "Object_6",
      "primitives": [
        {
          "attributes": {
            "COLOR_0": 28,
            "NORMAL": 27,
            "POSITION": 26,
            "TEXCOORD_0": 29
          },
          "indices": 30,
          "material": 0,
          "mode": 4
        }
      ]
    },
    {
      "name": "Object_7",
      "primitives": [
        {
          "attributes": {
            "COLOR_0": 33,
            "NORMAL": 32,
            "POSITION": 31,
            "TEXCOORD_0": 34
          },
          "indices": 35,
          "material": 0,
          "mode": 4
        }
      ]
    },
    {
      "name": "Object_8",
      "primitives": [
        {
          "attributes": {
            "COLOR_0": 38,
            "NORMAL": 37,
            "POSITION": 36,
            "TEXCOORD_0": 39
          },
          "indices": 40,
          "material": 0,
          "mode": 4
        }
      ]
    },
    {
      "name": "Object_9",
      "primitives": [
        {
          "attributes": {
            "COLOR_0": 43,
            "NORMAL": 42,
            "POSITION": 41,
            "TEXCOORD_0": 44
          },
          "indices": 45,
          "material": 0,
          "mode": 4
        }
      ]
    }
  ],
  "nodes": [
    {
      "children": [
        1
      ],
      "matrix": [
        1.0,
        0.0,
        0.0,
        0.0,
        0.0,
        2.220446049250313e-16,
        -1.0,
        0.0,
        0.0,
        1.0,
        2.220446049250313e-16,
        0.0,
        0.0,
        0.0,
        0.0,
        1.0
      ],
      "name": "Sketchfab_model"
    },
    {
      "children": [
        2,
        3,
        4,
        5,
        6,
        7,
        8,
        9,
        10,
        11
      ],
      "name": "yourMesh (18).obj.cleaner.materialmerger.gles"
    },
    {
      "mesh": 0,
      "name": "Object_2"
    },
    {
      "mesh": 1,
      "name": "Object_3"
    },
    {
      "mesh": 2,
      "name": "Object_4"
    },
    {
      "mesh": 3,
      "name": "Object_5"
    },
    {
      "mesh": 4,
      "name": "Object_6"
    },
    {
      "mesh": 5,
      "name": "Object_7"
    },
    {
      "mesh": 6,
      "name": "Object_8"
    },
    {
      "mesh": 7,
      "name": "Object_9"
    },
    {
      "mesh": 8,
      "name": "Object_10"
    },
    {
      "mesh": 9,
      "name": "Object_11"
    }
  ],
  "scene": 0,
  "scenes": [
    {
      "name": "Sketchfab_Scene",
      "nodes": [
        0
      ]
    }
  ]
}
