{
	"asset":{
		"generator":"Khronos glTF Blender I/O v3.5.30",
		"version":"2.0"
	},
	"scene":0,
	"scenes":[
		{
			"name":"Scene",
			"nodes":[
				17,
				18
			]
		}
	],
	"nodes":[
		{
			"mesh":0,
			"name":"FLower_Dirt 1_0"
		},
		{
			"mesh":1,
			"name":"FLower_Dirt 2_0"
		},
		{
			"mesh":2,
			"name":"FLower_Dirt 3_0"
		},
		{
			"mesh":3,
			"name":"FLower_Dirt 4_0"
		},
		{
			"mesh":4,
			"name":"FLower_Dirt 5_0"
		},
		{
			"mesh":5,
			"name":"FLower_Dirt 6_0"
		},
		{
			"mesh":6,
			"name":"FLower_Dirt 7_0"
		},
		{
			"mesh":7,
			"name":"FLower_Inner_Flower_0"
		},
		{
			"mesh":8,
			"name":"FLower_Petals_0"
		},
		{
			"mesh":9,
			"name":"FLower_Pot 1_0"
		},
		{
			"mesh":10,
			"name":"FLower_Pot 2_0"
		},
		{
			"mesh":11,
			"name":"FLower_Pot 3_0"
		},
		{
			"mesh":12,
			"name":"FLower_Stem 1_0"
		},
		{
			"mesh":13,
			"name":"FLower_Stem 2_0"
		},
		{
			"children":[
				0,
				1,
				2,
				3,
				4,
				5,
				6,
				7,
				8,
				9,
				10,
				11,
				12,
				13
			],
			"name":"FLower",
			"rotation":[
				-0.70710688829422,
				0,
				0,
				0.7071066498756409
			],
			"scale":[
				50,
				49.999996185302734,
				49.999996185302734
			]
		},
		{
			"children":[
				14
			],
			"name":"RootNode"
		},
		{
			"children":[
				15
			],
			"name":"3beceecfd1714b3cb86b97de62c45f38.fbx",
			"rotation":[
				0.70710688829422,
				0,
				0,
				0.7071066498756409
			],
			"scale":[
				0.009999999776482582,
				0.010000000707805157,
				0.010000000707805157
			]
		},
		{
			"children":[
				16
			],
			"name":"Sketchfab_model",
			"rotation":[
				-0.70710688829422,
				0,
				0,
				0.7071066498756409
			]
		},
		{
			"mesh":14,
			"name":"Cube"
		}
	],
	"materials":[
		{
			"doubleSided":true,
			"name":"Dirt_1",
			"pbrMetallicRoughness":{
				"baseColorFactor":[
					0.19046300649642944,
					0.08919350057840347,
					0.019917799159884453,
					1
				],
				"metallicFactor":0,
				"roughnessFactor":0.974103569984436
			}
		},
		{
			"doubleSided":true,
			"name":"Dirt_2",
			"pbrMetallicRoughness":{
				"baseColorFactor":[
					0.3111810088157654,
					0.12474100291728973,
					0.02310360036790371,
					1
				],
				"metallicFactor":0,
				"roughnessFactor":0.96153324842453
			}
		},
		{
			"doubleSided":true,
			"name":"Dirt_3",
			"pbrMetallicRoughness":{
				"baseColorFactor":[
					0.4647409915924072,
					0.2047100067138672,
					0.09387589991092682,
					1
				],
				"metallicFactor":0,
				"roughnessFactor":0.9382752180099487
			}
		},
		{
			"doubleSided":true,
			"name":"Dirt_4",
			"pbrMetallicRoughness":{
				"baseColorFactor":[
					0.21576400101184845,
					0.07382780313491821,
					0.012663699686527252,
					1
				],
				"metallicFactor":0,
				"roughnessFactor":0.9756061434745789
			}
		},
		{
			"doubleSided":true,
			"name":"Dirt_5",
			"pbrMetallicRoughness":{
				"baseColorFactor":[
					0.2801240086555481,
					0.10114499926567078,
					0.04145190119743347,
					1
				],
				"metallicFactor":0.19628871977329254,
				"roughnessFactor":0.9669597744941711
			}
		},
		{
			"doubleSided":true,
			"name":"Dirt_6",
			"pbrMetallicRoughness":{
				"baseColorFactor":[
					0.2083600014448166,
					0.08464150130748749,
					0.020951099693775177,
					1
				],
				"metallicFactor":0.12940233945846558,
				"roughnessFactor":0.9739507436752319
			}
		},
		{
			"doubleSided":true,
			"name":"Dirt_7",
			"pbrMetallicRoughness":{
				"baseColorFactor":[
					0.3203819990158081,
					0.11392100155353546,
					0.01891300082206726,
					1
				],
				"metallicFactor":0.31181973218917847,
				"roughnessFactor":0.9630237221717834
			}
		},
		{
			"doubleSided":true,
			"emissiveFactor":[
				0.5477336645126343,
				0.5268711447715759,
				0
			],
			"name":"Inner_Flower",
			"pbrMetallicRoughness":{
				"baseColorFactor":[
					1,
					0.5604990124702454,
					0.0004925039829686284,
					1
				],
				"metallicFactor":0,
				"roughnessFactor":0.8497227430343628
			}
		},
		{
			"doubleSided":true,
			"name":"Petals",
			"pbrMetallicRoughness":{
				"baseColorFactor":[
					1,
					1,
					0.965815007686615,
					1
				],
				"metallicFactor":0,
				"roughnessFactor":0.7556555867195129
			}
		},
		{
			"doubleSided":true,
			"name":"Pot_1",
			"pbrMetallicRoughness":{
				"baseColorFactor":[
					0,
					0.08919350057840347,
					0.18014399707317352,
					1
				],
				"metallicFactor":0.25709450244903564,
				"roughnessFactor":0.12332175672054291
			}
		},
		{
			"doubleSided":true,
			"name":"Pot_2",
			"pbrMetallicRoughness":{
				"baseColorFactor":[
					0,
					0.12198600172996521,
					0.2348950058221817,
					1
				],
				"metallicFactor":0.25709450244903564,
				"roughnessFactor":0.305739164352417
			}
		},
		{
			"doubleSided":true,
			"name":"Pot_3",
			"pbrMetallicRoughness":{
				"baseColorFactor":[
					0,
					0.12474100291728973,
					0.2508400082588196,
					1
				],
				"metallicFactor":0.269255667924881,
				"roughnessFactor":0.09899944067001343
			}
		},
		{
			"doubleSided":true,
			"name":"Stem_1",
			"pbrMetallicRoughness":{
				"baseColorFactor":[
					0.11657600104808807,
					0.5417979955673218,
					0.010397800244390965,
					1
				],
				"metallicFactor":0
			}
		},
		{
			"doubleSided":true,
			"name":"Stem_2",
			"pbrMetallicRoughness":{
				"baseColorFactor":[
					0.06772460043430328,
					0.3685910105705261,
					0.0029323201160877943,
					1
				],
				"metallicFactor":0,
				"roughnessFactor":0.9318487644195557
			}
		},
		{
			"doubleSided":true,
			"name":"Material",
			"pbrMetallicRoughness":{
				"baseColorFactor":[
					0.800000011920929,
					0.800000011920929,
					0.800000011920929,
					1
				],
				"metallicFactor":0,
				"roughnessFactor":0.5
			}
		}
	],
	"meshes":[
		{
			"name":"FLower_Dirt 1_0",
			"primitives":[
				{
					"attributes":{
						"POSITION":0,
						"TEXCOORD_0":1,
						"NORMAL":2
					},
					"indices":3,
					"material":0
				}
			]
		},
		{
			"name":"FLower_Dirt 2_0",
			"primitives":[
				{
					"attributes":{
						"POSITION":4,
						"TEXCOORD_0":5,
						"NORMAL":6
					},
					"indices":7,
					"material":1
				}
			]
		},
		{
			"name":"FLower_Dirt 3_0",
			"primitives":[
				{
					"attributes":{
						"POSITION":8,
						"TEXCOORD_0":9,
						"NORMAL":10
					},
					"indices":11,
					"material":2
				}
			]
		},
		{
			"name":"FLower_Dirt 4_0",
			"primitives":[
				{
					"attributes":{
						"POSITION":12,
						"TEXCOORD_0":13,
						"NORMAL":14
					},
					"indices":15,
					"material":3
				}
			]
		},
		{
			"name":"FLower_Dirt 5_0",
			"primitives":[
				{
					"attributes":{
						"POSITION":16,
						"TEXCOORD_0":17,
						"NORMAL":18
					},
					"indices":19,
					"material":4
				}
			]
		},
		{
			"name":"FLower_Dirt 6_0",
			"primitives":[
				{
					"attributes":{
						"POSITION":20,
						"TEXCOORD_0":21,
						"NORMAL":22
					},
					"indices":19,
					"material":5
				}
			]
		},
		{
			"name":"FLower_Dirt 7_0",
			"primitives":[
				{
					"attributes":{
						"POSITION":23,
						"TEXCOORD_0":24,
						"NORMAL":25
					},
					"indices":19,
					"material":6
				}
			]
		},
		{
			"name":"FLower_Inner_Flower_0",
			"primitives":[
				{
					"attributes":{
						"POSITION":26,
						"TEXCOORD_0":27,
						"NORMAL":28
					},
					"indices":29,
					"material":7
				}
			]
		},
		{
			"name":"FLower_Petals_0",
			"primitives":[
				{
					"attributes":{
						"POSITION":30,
						"TEXCOORD_0":31,
						"NORMAL":32
					},
					"indices":33,
					"material":8
				}
			]
		},
		{
			"name":"FLower_Pot 1_0",
			"primitives":[
				{
					"attributes":{
						"POSITION":34,
						"TEXCOORD_0":35,
						"NORMAL":36
					},
					"indices":37,
					"material":9
				}
			]
		},
		{
			"name":"FLower_Pot 2_0",
			"primitives":[
				{
					"attributes":{
						"POSITION":38,
						"TEXCOORD_0":39,
						"NORMAL":40
					},
					"indices":41,
					"material":10
				}
			]
		},
		{
			"name":"FLower_Pot 3_0",
			"primitives":[
				{
					"attributes":{
						"POSITION":42,
						"TEXCOORD_0":43,
						"NORMAL":44
					},
					"indices":45,
					"material":11
				}
			]
		},
		{
			"name":"FLower_Stem 1_0",
			"primitives":[
				{
					"attributes":{
						"POSITION":46,
						"TEXCOORD_0":47,
						"NORMAL":48
					},
					"indices":49,
					"material":12
				}
			]
		},
		{
			"name":"FLower_Stem 2_0",
			"primitives":[
				{
					"attributes":{
						"POSITION":50,
						"TEXCOORD_0":51,
						"NORMAL":52
					},
					"indices":53,
					"material":13
				}
			]
		},
		{
			"name":"Cube",
			"primitives":[
				{
					"attributes":{
						"POSITION":54,
						"TEXCOORD_0":55,
						"NORMAL":56
					},
					"indices":57,
					"material":14
				}
			]
		}
	],
	"accessors":[
		{
			"bufferView":0,
			"componentType":5126,
			"count":100,
			"max":[
				2.4999961853027344,
				2.4999961853027344,
				0.9999998807907104
			],
			"min":[
				-1.5000038146972656,
				-2.5000038146972656,
				-1.1920928955078125e-07
			],
			"type":"VEC3"
		},
		{
			"bufferView":1,
			"componentType":5126,
			"count":100,
			"type":"VEC2"
		},
		{
			"bufferView":2,
			"componentType":5126,
			"count":100,
			"type":"VEC3"
		},
		{
			"bufferView":3,
			"componentType":5123,
			"count":150,
			"type":"SCALAR"
		},
		{
			"bufferView":4,
			"componentType":5126,
			"count":48,
			"max":[
				1.4999961853027344,
				0.4999961853027344,
				0.9999998807907104
			],
			"min":[
				-1.5000038146972656,
				-2.5000038146972656,
				-1.1920928955078125e-07
			],
			"type":"VEC3"
		},
		{
			"bufferView":5,
			"componentType":5126,
			"count":48,
			"type":"VEC2"
		},
		{
			"bufferView":6,
			"componentType":5126,
			"count":48,
			"type":"VEC3"
		},
		{
			"bufferView":7,
			"componentType":5123,
			"count":72,
			"type":"SCALAR"
		},
		{
			"bufferView":8,
			"componentType":5126,
			"count":16,
			"max":[
				-1.5000038146972656,
				-0.5000038146972656,
				0.9999998807907104
			],
			"min":[
				-2.5000038146972656,
				-1.5000038146972656,
				-1.1920928955078125e-07
			],
			"type":"VEC3"
		},
		{
			"bufferView":9,
			"componentType":5126,
			"count":16,
			"type":"VEC2"
		},
		{
			"bufferView":10,
			"componentType":5126,
			"count":16,
			"type":"VEC3"
		},
		{
			"bufferView":11,
			"componentType":5123,
			"count":24,
			"type":"SCALAR"
		},
		{
			"bufferView":12,
			"componentType":5126,
			"count":80,
			"max":[
				2.4999961853027344,
				2.4999961853027344,
				0.9999998807907104
			],
			"min":[
				-2.5000038146972656,
				-1.5000038146972656,
				-1.1920928955078125e-07
			],
			"type":"VEC3"
		},
		{
			"bufferView":13,
			"componentType":5126,
			"count":80,
			"type":"VEC2"
		},
		{
			"bufferView":14,
			"componentType":5126,
			"count":80,
			"type":"VEC3"
		},
		{
			"bufferView":15,
			"componentType":5123,
			"count":120,
			"type":"SCALAR"
		},
		{
			"bufferView":16,
			"componentType":5126,
			"count":32,
			"max":[
				0.4999961853027344,
				2.4999961853027344,
				0.9999998807907104
			],
			"min":[
				-2.5000038146972656,
				-0.5000038146972656,
				-1.1920928955078125e-07
			],
			"type":"VEC3"
		},
		{
			"bufferView":17,
			"componentType":5126,
			"count":32,
			"type":"VEC2"
		},
		{
			"bufferView":18,
			"componentType":5126,
			"count":32,
			"type":"VEC3"
		},
		{
			"bufferView":19,
			"componentType":5123,
			"count":48,
			"type":"SCALAR"
		},
		{
			"bufferView":20,
			"componentType":5126,
			"count":32,
			"max":[
				0.4999961853027344,
				1.4999961853027344,
				0.9999998807907104
			],
			"min":[
				-1.5000038146972656,
				-0.5000038146972656,
				-1.1920928955078125e-07
			],
			"type":"VEC3"
		},
		{
			"bufferView":21,
			"componentType":5126,
			"count":32,
			"type":"VEC2"
		},
		{
			"bufferView":22,
			"componentType":5126,
			"count":32,
			"type":"VEC3"
		},
		{
			"bufferView":23,
			"componentType":5126,
			"count":32,
			"max":[
				2.4999961853027344,
				1.4999961853027344,
				0.9999998807907104
			],
			"min":[
				0.4999961853027344,
				-0.5000038146972656,
				-1.1920928955078125e-07
			],
			"type":"VEC3"
		},
		{
			"bufferView":24,
			"componentType":5126,
			"count":32,
			"type":"VEC2"
		},
		{
			"bufferView":25,
			"componentType":5126,
			"count":32,
			"type":"VEC3"
		},
		{
			"bufferView":26,
			"componentType":5126,
			"count":36,
			"max":[
				0.4999961853027344,
				3.4999961853027344,
				8
			],
			"min":[
				-2.5000038146972656,
				-2.5000038146972656,
				5
			],
			"type":"VEC3"
		},
		{
			"bufferView":27,
			"componentType":5126,
			"count":36,
			"type":"VEC2"
		},
		{
			"bufferView":28,
			"componentType":5126,
			"count":36,
			"type":"VEC3"
		},
		{
			"bufferView":29,
			"componentType":5123,
			"count":54,
			"type":"SCALAR"
		},
		{
			"bufferView":30,
			"componentType":5126,
			"count":264,
			"max":[
				1.4999961853027344,
				4.499996185302734,
				9
			],
			"min":[
				-3.5000038146972656,
				-3.5000038146972656,
				4
			],
			"type":"VEC3"
		},
		{
			"bufferView":31,
			"componentType":5126,
			"count":264,
			"type":"VEC2"
		},
		{
			"bufferView":32,
			"componentType":5126,
			"count":264,
			"type":"VEC3"
		},
		{
			"bufferView":33,
			"componentType":5123,
			"count":396,
			"type":"SCALAR"
		},
		{
			"bufferView":34,
			"componentType":5126,
			"count":244,
			"max":[
				3.4999961853027344,
				3.4999961853027344,
				1.9999998807907104
			],
			"min":[
				-3.5000038146972656,
				-3.5000038146972656,
				-2
			],
			"type":"VEC3"
		},
		{
			"bufferView":35,
			"componentType":5126,
			"count":244,
			"type":"VEC2"
		},
		{
			"bufferView":36,
			"componentType":5126,
			"count":244,
			"type":"VEC3"
		},
		{
			"bufferView":37,
			"componentType":5123,
			"count":366,
			"type":"SCALAR"
		},
		{
			"bufferView":38,
			"componentType":5126,
			"count":828,
			"max":[
				3.4999961853027344,
				3.4999961853027344,
				1.9999998807907104
			],
			"min":[
				-3.5000038146972656,
				-3.5000038146972656,
				-2
			],
			"type":"VEC3"
		},
		{
			"bufferView":39,
			"componentType":5126,
			"count":828,
			"type":"VEC2"
		},
		{
			"bufferView":40,
			"componentType":5126,
			"count":828,
			"type":"VEC3"
		},
		{
			"bufferView":41,
			"componentType":5123,
			"count":1242,
			"type":"SCALAR"
		},
		{
			"bufferView":42,
			"componentType":5126,
			"count":188,
			"max":[
				3.4999961853027344,
				3.4999961853027344,
				1.9999998807907104
			],
			"min":[
				-3.5000038146972656,
				-2.5000038146972656,
				-2
			],
			"type":"VEC3"
		},
		{
			"bufferView":43,
			"componentType":5126,
			"count":188,
			"type":"VEC2"
		},
		{
			"bufferView":44,
			"componentType":5126,
			"count":188,
			"type":"VEC3"
		},
		{
			"bufferView":45,
			"componentType":5123,
			"count":282,
			"type":"SCALAR"
		},
		{
			"bufferView":46,
			"componentType":5126,
			"count":172,
			"max":[
				1.4999961853027344,
				2.4999961853027344,
				8
			],
			"min":[
				-2.5000038146972656,
				-1.5000038146972656,
				0.9999998807907104
			],
			"type":"VEC3"
		},
		{
			"bufferView":47,
			"componentType":5126,
			"count":172,
			"type":"VEC2"
		},
		{
			"bufferView":48,
			"componentType":5126,
			"count":172,
			"type":"VEC3"
		},
		{
			"bufferView":49,
			"componentType":5123,
			"count":258,
			"type":"SCALAR"
		},
		{
			"bufferView":50,
			"componentType":5126,
			"count":128,
			"max":[
				1.4999961853027344,
				3.4999961853027344,
				8
			],
			"min":[
				-2.5000038146972656,
				-2.5000038146972656,
				1.9999998807907104
			],
			"type":"VEC3"
		},
		{
			"bufferView":51,
			"componentType":5126,
			"count":128,
			"type":"VEC2"
		},
		{
			"bufferView":52,
			"componentType":5126,
			"count":128,
			"type":"VEC3"
		},
		{
			"bufferView":53,
			"componentType":5123,
			"count":192,
			"type":"SCALAR"
		},
		{
			"bufferView":54,
			"componentType":5126,
			"count":24,
			"max":[
				1,
				1,
				1
			],
			"min":[
				-1,
				-1,
				-1
			],
			"type":"VEC3"
		},
		{
			"bufferView":55,
			"componentType":5126,
			"count":24,
			"type":"VEC2"
		},
		{
			"bufferView":56,
			"componentType":5126,
			"count":24,
			"type":"VEC3"
		},
		{
			"bufferView":57,
			"componentType":5123,
			"count":36,
			"type":"SCALAR"
		}
	],
	"bufferViews":[
		{
			"buffer":0,
			"byteLength":1200,
			"byteOffset":0,
			"target":34962
		},
		{
			"buffer":0,
			"byteLength":800,
			"byteOffset":1200,
			"target":34962
		},
		{
			"buffer":0,
			"byteLength":1200,
			"byteOffset":2000,
			"target":34962
		},
		{
			"buffer":0,
			"byteLength":300,
			"byteOffset":3200,
			"target":34963
		},
		{
			"buffer":0,
			"byteLength":576,
			"byteOffset":3500,
			"target":34962
		},
		{
			"buffer":0,
			"byteLength":384,
			"byteOffset":4076,
			"target":34962
		},
		{
			"buffer":0,
			"byteLength":576,
			"byteOffset":4460,
			"target":34962
		},
		{
			"buffer":0,
			"byteLength":144,
			"byteOffset":5036,
			"target":34963
		},
		{
			"buffer":0,
			"byteLength":192,
			"byteOffset":5180,
			"target":34962
		},
		{
			"buffer":0,
			"byteLength":128,
			"byteOffset":5372,
			"target":34962
		},
		{
			"buffer":0,
			"byteLength":192,
			"byteOffset":5500,
			"target":34962
		},
		{
			"buffer":0,
			"byteLength":48,
			"byteOffset":5692,
			"target":34963
		},
		{
			"buffer":0,
			"byteLength":960,
			"byteOffset":5740,
			"target":34962
		},
		{
			"buffer":0,
			"byteLength":640,
			"byteOffset":6700,
			"target":34962
		},
		{
			"buffer":0,
			"byteLength":960,
			"byteOffset":7340,
			"target":34962
		},
		{
			"buffer":0,
			"byteLength":240,
			"byteOffset":8300,
			"target":34963
		},
		{
			"buffer":0,
			"byteLength":384,
			"byteOffset":8540,
			"target":34962
		},
		{
			"buffer":0,
			"byteLength":256,
			"byteOffset":8924,
			"target":34962
		},
		{
			"buffer":0,
			"byteLength":384,
			"byteOffset":9180,
			"target":34962
		},
		{
			"buffer":0,
			"byteLength":96,
			"byteOffset":9564,
			"target":34963
		},
		{
			"buffer":0,
			"byteLength":384,
			"byteOffset":9660,
			"target":34962
		},
		{
			"buffer":0,
			"byteLength":256,
			"byteOffset":10044,
			"target":34962
		},
		{
			"buffer":0,
			"byteLength":384,
			"byteOffset":10300,
			"target":34962
		},
		{
			"buffer":0,
			"byteLength":384,
			"byteOffset":10684,
			"target":34962
		},
		{
			"buffer":0,
			"byteLength":256,
			"byteOffset":11068,
			"target":34962
		},
		{
			"buffer":0,
			"byteLength":384,
			"byteOffset":11324,
			"target":34962
		},
		{
			"buffer":0,
			"byteLength":432,
			"byteOffset":11708,
			"target":34962
		},
		{
			"buffer":0,
			"byteLength":288,
			"byteOffset":12140,
			"target":34962
		},
		{
			"buffer":0,
			"byteLength":432,
			"byteOffset":12428,
			"target":34962
		},
		{
			"buffer":0,
			"byteLength":108,
			"byteOffset":12860,
			"target":34963
		},
		{
			"buffer":0,
			"byteLength":3168,
			"byteOffset":12968,
			"target":34962
		},
		{
			"buffer":0,
			"byteLength":2112,
			"byteOffset":16136,
			"target":34962
		},
		{
			"buffer":0,
			"byteLength":3168,
			"byteOffset":18248,
			"target":34962
		},
		{
			"buffer":0,
			"byteLength":792,
			"byteOffset":21416,
			"target":34963
		},
		{
			"buffer":0,
			"byteLength":2928,
			"byteOffset":22208,
			"target":34962
		},
		{
			"buffer":0,
			"byteLength":1952,
			"byteOffset":25136,
			"target":34962
		},
		{
			"buffer":0,
			"byteLength":2928,
			"byteOffset":27088,
			"target":34962
		},
		{
			"buffer":0,
			"byteLength":732,
			"byteOffset":30016,
			"target":34963
		},
		{
			"buffer":0,
			"byteLength":9936,
			"byteOffset":30748,
			"target":34962
		},
		{
			"buffer":0,
			"byteLength":6624,
			"byteOffset":40684,
			"target":34962
		},
		{
			"buffer":0,
			"byteLength":9936,
			"byteOffset":47308,
			"target":34962
		},
		{
			"buffer":0,
			"byteLength":2484,
			"byteOffset":57244,
			"target":34963
		},
		{
			"buffer":0,
			"byteLength":2256,
			"byteOffset":59728,
			"target":34962
		},
		{
			"buffer":0,
			"byteLength":1504,
			"byteOffset":61984,
			"target":34962
		},
		{
			"buffer":0,
			"byteLength":2256,
			"byteOffset":63488,
			"target":34962
		},
		{
			"buffer":0,
			"byteLength":564,
			"byteOffset":65744,
			"target":34963
		},
		{
			"buffer":0,
			"byteLength":2064,
			"byteOffset":66308,
			"target":34962
		},
		{
			"buffer":0,
			"byteLength":1376,
			"byteOffset":68372,
			"target":34962
		},
		{
			"buffer":0,
			"byteLength":2064,
			"byteOffset":69748,
			"target":34962
		},
		{
			"buffer":0,
			"byteLength":516,
			"byteOffset":71812,
			"target":34963
		},
		{
			"buffer":0,
			"byteLength":1536,
			"byteOffset":72328,
			"target":34962
		},
		{
			"buffer":0,
			"byteLength":1024,
			"byteOffset":73864,
			"target":34962
		},
		{
			"buffer":0,
			"byteLength":1536,
			"byteOffset":74888,
			"target":34962
		},
		{
			"buffer":0,
			"byteLength":384,
			"byteOffset":76424,
			"target":34963
		},
		{
			"buffer":0,
			"byteLength":288,
			"byteOffset":76808,
			"target":34962
		},
		{
			"buffer":0,
			"byteLength":192,
			"byteOffset":77096,
			"target":34962
		},
		{
			"buffer":0,
			"byteLength":288,
			"byteOffset":77288,
			"target":34962
		},
		{
			"buffer":0,
			"byteLength":72,
			"byteOffset":77576,
			"target":34963
		}
	],
	"buffers":[
		{
			"byteLength":77648,
			"uri":"data:application/octet-stream;base64,"
		}
	]
}
